<?xml version="1.0" standalone="no"?><!DOCTYPE svg PUBLIC "-//W3C//DTD SVG 1.1//EN" "http://www.w3.org/Graphics/SVG/1.1/DTD/svg11.dtd"><svg t="1590640853663" class="icon" viewBox="0 0 1024 1024" version="1.1" xmlns="http://www.w3.org/2000/svg" p-id="3768" xmlns:xlink="http://www.w3.org/1999/xlink" width="64" height="64"><defs><style type="text/css"></style></defs><path d="M353.706667 555.306667c-40.32 0-74.666667 24.533333-74.666667 53.333333 0 29.013333 34.346667 53.333333 74.666667 53.333333 34.133333 0 63.786667-17.28 72.106666-40.106666 0.213333-0.213333 0.213333-0.213333 0.213334-0.426667 0.426667-1.066667 0.853333-2.133333 1.066666-3.2 0.853333-3.2 1.28-6.4 1.28-9.6 0-28.8-34.133333-53.333333-74.666666-53.333333z" fill="#1296ff" p-id="3769"></path><path d="M789.333333 149.333333H234.666667a128 128 0 0 0-128 128v469.333334a128 128 0 0 0 128 128h554.666666a128 128 0 0 0 128-128V277.333333a128 128 0 0 0-128-128z m44.8 198.826667c-40.96 59.306667-96.853333 72.96-153.173333 37.333333-23.04-14.293333-55.466667-29.653333-80.64-19.84-26.24 9.813333-36.906667 43.093333-36.906667 43.52l-76.586666 232.106667v0.213333c-16.64 48.853333-69.973333 84.48-133.12 84.48-76.373333 0-138.666667-52.48-138.666667-117.333333 0-64.64 62.293333-117.333333 138.666667-117.333333 40.746667 0 77.226667 14.933333 102.613333 38.4l45.866667-139.52c0.426667-1.28 18.773333-62.933333 75.306666-84.48 40.106667-15.146667 86.186667-6.613333 137.6 25.6 22.613333 14.506667 41.813333 16.213333 66.56-19.626667 10.026667-14.506667 29.866667-18.133333 44.373334-8.106667 14.506667 10.24 18.133333 30.08 8.106666 44.586667z" fill="#1296ff" p-id="3770"></path></svg>