<?xml version="1.0" standalone="no"?><!DOCTYPE svg PUBLIC "-//W3C//DTD SVG 1.1//EN" "http://www.w3.org/Graphics/SVG/1.1/DTD/svg11.dtd"><svg t="1588346044271" class="icon" viewBox="0 0 1024 1024" version="1.1" xmlns="http://www.w3.org/2000/svg" p-id="7097" xmlns:xlink="http://www.w3.org/1999/xlink" width="200" height="200"><defs><style type="text/css"></style></defs><path d="M511.975892 191.296945a23.234661 23.234661 0 1 0 0 46.934014 202.315808 202.315808 0 0 1 202.315808 202.315808 23.234661 23.234661 0 0 0 46.934015 0 249.191736 249.191736 0 0 0-249.249823-249.249822z" fill="#707070" p-id="7098"></path><path d="M1009.313805 958.389268l-172.807789-172.807789a475.032638 475.032638 0 1 0-54.369106 53.555893l173.214395 173.214396a38.16293 38.16293 0 1 0 53.9625-53.9625z m-533.11929-90.03431a393.072373 393.072373 0 1 1 393.943672-392.0849 393.072373 393.072373 0 0 1-393.943672 392.0849z" fill="#707070" p-id="7099"></path></svg>